<svg xmlns="http://www.w3.org/2000/svg" viewBox="0 0 1400 550" role="img" aria-labelledby="title desc"><title id="title">Proposed AWS trust and publication boundaries</title><desc id="desc">Authored static illustration. Not a screenshot or newly executed result. Source and qualifiers are recorded in the asset manifest.</desc><rect width="1400" height="550" fill="#0c0908" /><rect x="20" y="48" width="900" height="250" rx="10" fill="none" stroke="#a99787" stroke-width="2" stroke-dasharray="8 6" /><text x="470" y="86" fill="#a99787" font-size="28" font-family="Arial, sans-serif" text-anchor="middle" font-weight="normal"><tspan x="470" dy="0">Private intake / work boundary</tspan></text><rect x="45" y="125" width="250" height="125" rx="10" fill="#181211" stroke="#e2ac62" stroke-width="2" /><text x="170.0" y="175" fill="#e2ac62" font-size="32" font-family="Arial, sans-serif" text-anchor="middle" font-weight="bold"><tspan x="170.0" dy="0">S3 intake</tspan></text><text x="170.0" y="220" fill="#ece2d3" font-size="27" font-family="Arial, sans-serif" text-anchor="middle" font-weight="normal"><tspan x="170.0" dy="0">read-only versions</tspan></text><rect x="340" y="125" width="260" height="125" rx="10" fill="#181211" stroke="#e2ac62" stroke-width="2" /><text x="470.0" y="175" fill="#e2ac62" font-size="32" font-family="Arial, sans-serif" text-anchor="middle" font-weight="bold"><tspan x="470.0" dy="0">Dispatch + workers</tspan></text><text x="470.0" y="220" fill="#ece2d3" font-size="27" font-family="Arial, sans-serif" text-anchor="middle" font-weight="normal"><tspan x="470.0" dy="0">format-aware work</tspan></text><rect x="645" y="125" width="250" height="125" rx="10" fill="#181211" stroke="#e2ac62" stroke-width="2" /><text x="770.0" y="175" fill="#e2ac62" font-size="32" font-family="Arial, sans-serif" text-anchor="middle" font-weight="bold"><tspan x="770.0" dy="0">Verify all</tspan></text><text x="770.0" y="220" fill="#ece2d3" font-size="27" font-family="Arial, sans-serif" text-anchor="middle" font-weight="normal"><tspan x="770.0" dy="0">corpus fan-in</tspan></text><line x1="300" y1="188" x2="333" y2="188" stroke="#e2ac62" stroke-width="3" /><polygon points="333,188 322.1946347717679,193.21958640933477 322.1946347717679,182.78041359066523" fill="#e2ac62" /><line x1="607" y1="188" x2="638" y2="188" stroke="#e2ac62" stroke-width="3" /><polygon points="638,188 627.1946347717678,193.21958640933477 627.1946347717678,182.78041359066523" fill="#e2ac62" /><line x1="947" y1="50" x2="947" y2="475" stroke="#e2ac62" stroke-width="2" stroke-dasharray="8 6" /><rect x="985" y="125" width="390" height="125" rx="10" fill="#181211" stroke="#93a289" stroke-width="2" /><text x="1180.0" y="175" fill="#93a289" font-size="32" font-family="Arial, sans-serif" text-anchor="middle" font-weight="bold"><tspan x="1180.0" dy="0">Publish manifest</tspan></text><text x="1180.0" y="220" fill="#ece2d3" font-size="27" font-family="Arial, sans-serif" text-anchor="middle" font-weight="normal"><tspan x="1180.0" dy="0">switch active pointer</tspan></text><line x1="902" y1="188" x2="978" y2="188" stroke="#e2ac62" stroke-width="3" /><polygon points="978,188 967.1946347717678,193.21958640933477 967.1946347717678,182.78041359066523" fill="#e2ac62" /><line x1="770" y1="252" x2="770" y2="360" stroke="#d1703c" stroke-width="3" /><polygon points="770,360 764.7804135906653,349.1946347717679 775.2195864093347,349.1946347717679" fill="#d1703c" /><rect x="600" y="369" width="320" height="105" rx="10" fill="#181211" stroke="#d1703c" stroke-width="2" /><text x="760.0" y="419" fill="#d1703c" font-size="32" font-family="Arial, sans-serif" text-anchor="middle" font-weight="bold"><tspan x="760.0" dy="0">Quarantine</tspan></text><path d="M470 253 V331 H170 V252" fill="none" stroke="#e2ac62" stroke-width="3" /><line x1="170" y1="289" x2="170" y2="252" stroke="#e2ac62" stroke-width="3" /><polygon points="170,252 175.21958640933477,262.8053652282321 164.78041359066523,262.8053652282321" fill="#e2ac62" /><text x="322" y="323" fill="#e2ac62" font-size="26" font-family="Arial, sans-serif" text-anchor="middle" font-weight="normal"><tspan x="322" dy="0">retry / replay</tspan></text><text x="1178" y="367" fill="#a99787" font-size="29" font-family="Arial, sans-serif" text-anchor="middle" font-weight="normal"><tspan x="1178" dy="0">Durable publication</tspan><tspan x="1178" dy="36.54">boundary</tspan></text><text x="40" y="523" fill="#a99787" font-size="26" font-family="Arial, sans-serif" text-anchor="start" font-weight="normal"><tspan x="40" dy="0">DESIGN ONLY · one versioned identity / collision plan for every worker</tspan></text></svg>
