<svg xmlns="http://www.w3.org/2000/svg" viewBox="0 0 1400 460" role="img" aria-labelledby="title desc"><title id="title">Report-last publication state transitions</title><desc id="desc">Authored static illustration. Not a screenshot or newly executed result. Source and qualifiers are recorded in the asset manifest.</desc><rect width="1400" height="460" fill="#0c0908" /><rect x="20" y="92" width="310" height="144" rx="10" fill="#181211" stroke="#e2ac62" stroke-width="2" /><text x="175.0" y="142" fill="#e2ac62" font-size="32" font-family="Arial, sans-serif" text-anchor="middle" font-weight="bold"><tspan x="175.0" dy="0">Invalidate</tspan></text><text x="175.0" y="187" fill="#ece2d3" font-size="27" font-family="Arial, sans-serif" text-anchor="middle" font-weight="normal"><tspan x="175.0" dy="0">old marker</tspan></text><rect x="370" y="92" width="310" height="144" rx="10" fill="#181211" stroke="#e2ac62" stroke-width="2" /><text x="525.0" y="142" fill="#e2ac62" font-size="32" font-family="Arial, sans-serif" text-anchor="middle" font-weight="bold"><tspan x="525.0" dy="0">Check seal</tspan></text><text x="525.0" y="187" fill="#ece2d3" font-size="27" font-family="Arial, sans-serif" text-anchor="middle" font-weight="normal"><tspan x="525.0" dy="0">then move corpus</tspan></text><rect x="720" y="92" width="310" height="144" rx="10" fill="#181211" stroke="#e2ac62" stroke-width="2" /><text x="875.0" y="142" fill="#e2ac62" font-size="32" font-family="Arial, sans-serif" text-anchor="middle" font-weight="bold"><tspan x="875.0" dy="0">Write all</tspan></text><text x="875.0" y="187" fill="#ece2d3" font-size="27" font-family="Arial, sans-serif" text-anchor="middle" font-weight="normal"><tspan x="875.0" dy="0">temporary report</tspan></text><rect x="1070" y="92" width="310" height="144" rx="10" fill="#181211" stroke="#93a289" stroke-width="2" /><text x="1225.0" y="142" fill="#93a289" font-size="32" font-family="Arial, sans-serif" text-anchor="middle" font-weight="bold"><tspan x="1225.0" dy="0">Rename</tspan></text><text x="1225.0" y="187" fill="#ece2d3" font-size="27" font-family="Arial, sans-serif" text-anchor="middle" font-weight="normal"><tspan x="1225.0" dy="0">report.json last</tspan></text><line x1="332" y1="164" x2="364" y2="164" stroke="#e2ac62" stroke-width="3" /><polygon points="364,164 353.1946347717679,169.21958640933477 353.1946347717679,158.78041359066523" fill="#e2ac62" /><line x1="682" y1="164" x2="714" y2="164" stroke="#e2ac62" stroke-width="3" /><polygon points="714,164 703.1946347717678,169.21958640933477 703.1946347717678,158.78041359066523" fill="#e2ac62" /><line x1="1032" y1="164" x2="1064" y2="164" stroke="#e2ac62" stroke-width="3" /><polygon points="1064,164 1053.1946347717678,169.21958640933477 1053.1946347717678,158.78041359066523" fill="#e2ac62" /><text x="700" y="318" fill="#ece2d3" font-size="33" font-family="Arial, sans-serif" text-anchor="middle" font-weight="normal"><tspan x="700" dy="0">Corpus bytes without the marker are not READY.</tspan></text><text x="700" y="383" fill="#a99787" font-size="27" font-family="Arial, sans-serif" text-anchor="middle" font-weight="normal"><tspan x="700" dy="0">Trusted single writer · no full rollback or exhaustive crash claim</tspan></text></svg>
